<svg aria-roledescription="er" viewBox="0 0 1024.6015625 651.560546875" style="max-width: 1024.6px; background-color: white;" xmlns:xlink="http://www.w3.org/1999/xlink" xmlns="http://www.w3.org/2000/svg" width="100%" id="mermaid-0"><style>#mermaid-0{font-family:"trebuchet ms",verdana,arial,sans-serif;font-size:16px;fill:#000000;}#mermaid-0 .error-icon{fill:#552222;}#mermaid-0 .error-text{fill:#552222;stroke:#552222;}#mermaid-0 .edge-thickness-normal{stroke-width:2px;}#mermaid-0 .edge-thickness-thick{stroke-width:3.5px;}#mermaid-0 .edge-pattern-solid{stroke-dasharray:0;}#mermaid-0 .edge-pattern-dashed{stroke-dasharray:3;}#mermaid-0 .edge-pattern-dotted{stroke-dasharray:2;}#mermaid-0 .marker{fill:#000000;stroke:#000000;}#mermaid-0 .marker.cross{stroke:#000000;}#mermaid-0 svg{font-family:"trebuchet ms",verdana,arial,sans-serif;font-size:16px;}#mermaid-0 .entityBox{fill:#cde498;stroke:#13540c;}#mermaid-0 .attributeBoxOdd{fill:#ffffff;stroke:#13540c;}#mermaid-0 .attributeBoxEven{fill:#f2f2f2;stroke:#13540c;}#mermaid-0 .relationshipLabelBox{fill:hsl(78.1578947368, 58.4615384615%, 84.5098039216%);opacity:0.7;background-color:hsl(78.1578947368, 58.4615384615%, 84.5098039216%);}#mermaid-0 .relationshipLabelBox rect{opacity:0.5;}#mermaid-0 .relationshipLine{stroke:#000000;}#mermaid-0 .entityTitleText{text-anchor:middle;font-size:18px;fill:#000000;}#mermaid-0 :root{--mermaid-font-family:"trebuchet ms",verdana,arial,sans-serif;}</style><g/><defs><marker orient="auto" markerHeight="18" markerWidth="18" refY="9" refX="0" id="ONLY_ONE_START"><path d="M9,0 L9,18 M15,0 L15,18" fill="none" stroke="gray"/></marker></defs><defs><marker orient="auto" markerHeight="18" markerWidth="18" refY="9" refX="18" id="ONLY_ONE_END"><path d="M3,0 L3,18 M9,0 L9,18" fill="none" stroke="gray"/></marker></defs><defs><marker orient="auto" markerHeight="18" markerWidth="30" refY="9" refX="0" id="ZERO_OR_ONE_START"><circle r="6" cy="9" cx="21" fill="white" stroke="gray"/><path d="M9,0 L9,18" fill="none" stroke="gray"/></marker></defs><defs><marker orient="auto" markerHeight="18" markerWidth="30" refY="9" refX="30" id="ZERO_OR_ONE_END"><circle r="6" cy="9" cx="9" fill="white" stroke="gray"/><path d="M21,0 L21,18" fill="none" stroke="gray"/></marker></defs><defs><marker orient="auto" markerHeight="36" markerWidth="45" refY="18" refX="18" id="ONE_OR_MORE_START"><path d="M0,18 Q 18,0 36,18 Q 18,36 0,18 M42,9 L42,27" fill="none" stroke="gray"/></marker></defs><defs><marker orient="auto" markerHeight="36" markerWidth="45" refY="18" refX="27" id="ONE_OR_MORE_END"><path d="M3,9 L3,27 M9,18 Q27,0 45,18 Q27,36 9,18" fill="none" stroke="gray"/></marker></defs><defs><marker orient="auto" markerHeight="36" markerWidth="57" refY="18" refX="18" id="ZERO_OR_MORE_START"><circle r="6" cy="18" cx="48" fill="white" stroke="gray"/><path d="M0,18 Q18,0 36,18 Q18,36 0,18" fill="none" stroke="gray"/></marker></defs><defs><marker orient="auto" markerHeight="36" markerWidth="57" refY="18" refX="39" id="ZERO_OR_MORE_END"><circle r="6" cy="18" cx="9" fill="white" stroke="gray"/><path d="M21,18 Q39,0 57,18 Q39,36 21,18" fill="none" stroke="gray"/></marker></defs><path style="stroke: gray; fill: none;" marker-start="url(#ZERO_OR_ONE_START)" marker-end="url(#ONLY_ONE_END)" d="M134.1061077484112,154.1376953125L124.41264187367601,162.47867838541666C114.7191759989408,170.81966145833334,95.3322442494704,187.50162760416666,85.6387783747352,229.94970703125C75.9453125,272.3977864583333,75.9453125,340.6119791666667,75.9453125,374.7190755208333L75.9453125,408.826171875" class="er relationshipLine"/><path style="stroke: gray; fill: none;" marker-start="url(#ZERO_OR_ONE_START)" marker-end="url(#ONLY_ONE_END)" d="M253.6817870987869,154.1376953125L258.8643798739891,162.47867838541666C264.0469726491913,170.81966145833334,274.41215819959564,187.50162760416666,296.57343342161687,229.94970703125C318.73470864363804,272.3977864583333,352.69207353727614,340.6119791666667,369.6707559840952,374.7190755208333L386.6494384309142,408.826171875" class="er relationshipLine"/><path style="stroke: gray; fill: none;" marker-start="url(#ZERO_OR_MORE_START)" marker-end="url(#ONLY_ONE_END)" d="M303.1796875,110.20587764135142L364.9505208333333,125.86883032612617C426.7213541666667,141.53178301090097,550.2630208333334,172.85768838045047,612.0338541666666,196.85397439855856C673.8046875,220.85026041666666,673.8046875,237.51692708333334,673.8046875,245.85026041666666L673.8046875,254.18359375" class="er relationshipLine"/><path style="stroke: gray; fill: none;" marker-start="url(#ZERO_OR_ONE_START)" marker-end="url(#ONLY_ONE_END)" d="M495.171875,154.18359375L495.171875,162.51692708333334C495.171875,170.85026041666666,495.171875,187.51692708333334,482.08648961632,229.95735677083334C469.00110423264,272.3977864583333,442.8303334652799,340.6119791666667,429.74494808159994,374.7190755208333L416.65956269791997,408.826171875" class="er relationshipLine"/><path style="stroke: gray; fill: none;" marker-start="url(#ZERO_OR_ONE_START)" marker-end="url(#ONLY_ONE_END)" d="M403.1796875,121.79450406980311L366.779296875,135.5260190165026C330.37890625,149.25753396320206,257.578125,176.72056385660105,205.6263150952701,224.5591751574672C153.67450519054015,272.3977864583333,122.57166663108028,340.6119791666667,107.02024735135035,374.7190755208333L91.46882807162042,408.826171875" class="er relationshipLine"/><path style="stroke: gray; fill: none;" marker-start="url(#ZERO_OR_ONE_START)" marker-end="url(#ONLY_ONE_END)" d="M587.1640625,111.47254890773372L645.4661458333334,126.9243897147781C703.7682291666666,142.37623052182246,820.3723958333334,173.27991213591125,878.6744791666666,222.8464990367056C936.9765625,272.4130859375,936.9765625,340.642578125,936.9765625,374.75732421875L936.9765625,408.8720703125" class="er relationshipLine"/><g transform="translate(341.87890625,408.826171875 )" id="entity-MetricService-7f7a5778-b391-48ac-a011-e8e38e77c6a2"><rect height="68.091796875" width="123.4375" y="0" x="0" class="er entityBox"/><text style="dominant-baseline: middle; text-anchor: middle; font-size: 12px;" transform="translate(61.71875,12)" y="0" x="0" id="text-entity-MetricService-7f7a5778-b391-48ac-a011-e8e38e77c6a2" class="er entityLabel">MetricService</text><rect height="22.091796875" width="61.71875" y="24" x="0" class="er attributeBoxOdd"/><text style="dominant-baseline: middle; font-size: 10.2px;" transform="translate(5,35.0458984375)" y="0" x="0" id="text-entity-MetricService-7f7a5778-b391-48ac-a011-e8e38e77c6a2-attr-1-type" class="er entityLabel">Application</text><rect height="22.091796875" width="61.71875" y="24" x="61.71875" class="er attributeBoxOdd"/><text style="dominant-baseline: middle; font-size: 10.2px;" transform="translate(66.71875,35.0458984375)" y="0" x="0" id="text-entity-MetricService-7f7a5778-b391-48ac-a011-e8e38e77c6a2-attr-1-name" class="er entityLabel">Application</text><rect height="22" width="61.71875" y="46.091796875" x="0" class="er attributeBoxEven"/><text style="dominant-baseline: middle; font-size: 10.2px;" transform="translate(5,57.091796875)" y="0" x="0" id="text-entity-MetricService-7f7a5778-b391-48ac-a011-e8e38e77c6a2-attr-2-type" class="er entityLabel">Database</text><rect height="22" width="61.71875" y="46.091796875" x="61.71875" class="er attributeBoxEven"/><text style="dominant-baseline: middle; font-size: 10.2px;" transform="translate(66.71875,57.091796875)" y="0" x="0" id="text-entity-MetricService-7f7a5778-b391-48ac-a011-e8e38e77c6a2-attr-2-name" class="er entityLabel">Database</text></g><g transform="translate(20,408.826171875 )" id="entity-MetricResource-a9769abd-26d3-4348-95ae-15d71a1f33aa"><rect height="68.091796875" width="111.890625" y="0" x="0" class="er entityBox"/><text style="dominant-baseline: middle; text-anchor: middle; font-size: 12px;" transform="translate(55.9453125,12)" y="0" x="0" id="text-entity-MetricResource-a9769abd-26d3-4348-95ae-15d71a1f33aa" class="er entityLabel">MetricResource</text><rect height="22" width="55.9453125" y="24" x="0" class="er attributeBoxOdd"/><text style="dominant-baseline: middle; font-size: 10.2px;" transform="translate(5,35)" y="0" x="0" id="text-entity-MetricResource-a9769abd-26d3-4348-95ae-15d71a1f33aa-attr-1-type" class="er entityLabel">CPU</text><rect height="22" width="55.9453125" y="24" x="55.9453125" class="er attributeBoxOdd"/><text style="dominant-baseline: middle; font-size: 10.2px;" transform="translate(60.9453125,35)" y="0" x="0" id="text-entity-MetricResource-a9769abd-26d3-4348-95ae-15d71a1f33aa-attr-1-name" class="er entityLabel">CPU</text><rect height="22.091796875" width="55.9453125" y="46" x="0" class="er attributeBoxEven"/><text style="dominant-baseline: middle; font-size: 10.2px;" transform="translate(5,57.0458984375)" y="0" x="0" id="text-entity-MetricResource-a9769abd-26d3-4348-95ae-15d71a1f33aa-attr-2-type" class="er entityLabel">Memory</text><rect height="22.091796875" width="55.9453125" y="46" x="55.9453125" class="er attributeBoxEven"/><text style="dominant-baseline: middle; font-size: 10.2px;" transform="translate(60.9453125,57.0458984375)" y="0" x="0" id="text-entity-MetricResource-a9769abd-26d3-4348-95ae-15d71a1f33aa-attr-2-name" class="er entityLabel">Memory</text></g><g transform="translate(869.3515625,408.8720703125 )" id="entity-QuiverProducts-f1dd4b9f-a23c-4bbb-8ec7-242a40928a92"><rect height="68" width="135.25" y="0" x="0" class="er entityBox"/><text style="dominant-baseline: middle; text-anchor: middle; font-size: 12px;" transform="translate(67.625,12)" y="0" x="0" id="text-entity-QuiverProducts-f1dd4b9f-a23c-4bbb-8ec7-242a40928a92" class="er entityLabel">QuiverProducts</text><rect height="22" width="67.625" y="24" x="0" class="er attributeBoxOdd"/><text style="dominant-baseline: middle; font-size: 10.2px;" transform="translate(5,35)" y="0" x="0" id="text-entity-QuiverProducts-f1dd4b9f-a23c-4bbb-8ec7-242a40928a92-attr-1-type" class="er entityLabel">Quiver_PRO</text><rect height="22" width="67.625" y="24" x="67.625" class="er attributeBoxOdd"/><text style="dominant-baseline: middle; font-size: 10.2px;" transform="translate(72.625,35)" y="0" x="0" id="text-entity-QuiverProducts-f1dd4b9f-a23c-4bbb-8ec7-242a40928a92-attr-1-name" class="er entityLabel">Quiver_PRO</text><rect height="22" width="67.625" y="46" x="0" class="er attributeBoxEven"/><text style="dominant-baseline: middle; font-size: 10.2px;" transform="translate(5,57)" y="0" x="0" id="text-entity-QuiverProducts-f1dd4b9f-a23c-4bbb-8ec7-242a40928a92-attr-2-type" class="er entityLabel">Quiver_PLUS</text><rect height="22" width="67.625" y="46" x="67.625" class="er attributeBoxEven"/><text style="dominant-baseline: middle; font-size: 10.2px;" transform="translate(72.625,57)" y="0" x="0" id="text-entity-QuiverProducts-f1dd4b9f-a23c-4bbb-8ec7-242a40928a92-attr-2-name" class="er entityLabel">Quiver_PLUS</text></g><g transform="translate(120.8671875,20.0458984375 )" id="entity-Metrics-3399bd47-e97a-4f65-940f-fd3b052c9e12"><rect height="134.09179782867432" width="182.3125" y="0" x="0" class="er entityBox"/><text style="dominant-baseline: middle; text-anchor: middle; font-size: 12px;" transform="translate(91.15625,12)" y="0" x="0" id="text-entity-Metrics-3399bd47-e97a-4f65-940f-fd3b052c9e12" class="er entityLabel">Metrics</text><rect height="22" width="79.609375" y="24" x="0" class="er attributeBoxOdd"/><text style="dominant-baseline: middle; font-size: 10.2px;" transform="translate(5,35)" y="0" x="0" id="text-entity-Metrics-3399bd47-e97a-4f65-940f-fd3b052c9e12-attr-1-type" class="er entityLabel">Int</text><rect height="22" width="81.140625" y="24" x="79.609375" class="er attributeBoxOdd"/><text style="dominant-baseline: middle; font-size: 10.2px;" transform="translate(84.609375,35)" y="0" x="0" id="text-entity-Metrics-3399bd47-e97a-4f65-940f-fd3b052c9e12-attr-1-name" class="er entityLabel">id</text><rect height="22" width="21.5625" y="24" x="160.75" class="er attributeBoxOdd"/><text style="dominant-baseline: middle; font-size: 10.2px;" transform="translate(165.75,35)" y="0" x="0" id="text-entity-Metrics-3399bd47-e97a-4f65-940f-fd3b052c9e12-attr-1-key" class="er entityLabel">PK</text><rect height="22" width="79.609375" y="46" x="0" class="er attributeBoxEven"/><text style="dominant-baseline: middle; font-size: 10.2px;" transform="translate(5,57)" y="0" x="0" id="text-entity-Metrics-3399bd47-e97a-4f65-940f-fd3b052c9e12-attr-2-type" class="er entityLabel">MetricResource</text><rect height="22" width="81.140625" y="46" x="79.609375" class="er attributeBoxEven"/><text style="dominant-baseline: middle; font-size: 10.2px;" transform="translate(84.609375,57)" y="0" x="0" id="text-entity-Metrics-3399bd47-e97a-4f65-940f-fd3b052c9e12-attr-2-name" class="er entityLabel">resource</text><rect height="22" width="21.5625" y="46" x="160.75" class="er attributeBoxEven"/><text style="dominant-baseline: middle; font-size: 10.2px;" transform="translate(165.75,57)" y="0" x="0" id="text-entity-Metrics-3399bd47-e97a-4f65-940f-fd3b052c9e12-attr-2-key" class="er entityLabel"/><rect height="22" width="79.609375" y="68" x="0" class="er attributeBoxOdd"/><text style="dominant-baseline: middle; font-size: 10.2px;" transform="translate(5,79)" y="0" x="0" id="text-entity-Metrics-3399bd47-e97a-4f65-940f-fd3b052c9e12-attr-3-type" class="er entityLabel">MetricService</text><rect height="22" width="81.140625" y="68" x="79.609375" class="er attributeBoxOdd"/><text style="dominant-baseline: middle; font-size: 10.2px;" transform="translate(84.609375,79)" y="0" x="0" id="text-entity-Metrics-3399bd47-e97a-4f65-940f-fd3b052c9e12-attr-3-name" class="er entityLabel">service</text><rect height="22" width="21.5625" y="68" x="160.75" class="er attributeBoxOdd"/><text style="dominant-baseline: middle; font-size: 10.2px;" transform="translate(165.75,79)" y="0" x="0" id="text-entity-Metrics-3399bd47-e97a-4f65-940f-fd3b052c9e12-attr-3-key" class="er entityLabel"/><rect height="22.091797828674316" width="79.609375" y="90" x="0" class="er attributeBoxEven"/><text style="dominant-baseline: middle; font-size: 10.2px;" transform="translate(5,101.04589891433716)" y="0" x="0" id="text-entity-Metrics-3399bd47-e97a-4f65-940f-fd3b052c9e12-attr-4-type" class="er entityLabel">Float</text><rect height="22.091797828674316" width="81.140625" y="90" x="79.609375" class="er attributeBoxEven"/><text style="dominant-baseline: middle; font-size: 10.2px;" transform="translate(84.609375,101.04589891433716)" y="0" x="0" id="text-entity-Metrics-3399bd47-e97a-4f65-940f-fd3b052c9e12-attr-4-name" class="er entityLabel">maximumUsage</text><rect height="22.091797828674316" width="21.5625" y="90" x="160.75" class="er attributeBoxEven"/><text style="dominant-baseline: middle; font-size: 10.2px;" transform="translate(165.75,101.04589891433716)" y="0" x="0" id="text-entity-Metrics-3399bd47-e97a-4f65-940f-fd3b052c9e12-attr-4-key" class="er entityLabel"/><rect height="22" width="79.609375" y="112.09179782867432" x="0" class="er attributeBoxOdd"/><text style="dominant-baseline: middle; font-size: 10.2px;" transform="translate(5,123.09179782867432)" y="0" x="0" id="text-entity-Metrics-3399bd47-e97a-4f65-940f-fd3b052c9e12-attr-5-type" class="er entityLabel">DateTime</text><rect height="22" width="81.140625" y="112.09179782867432" x="79.609375" class="er attributeBoxOdd"/><text style="dominant-baseline: middle; font-size: 10.2px;" transform="translate(84.609375,123.09179782867432)" y="0" x="0" id="text-entity-Metrics-3399bd47-e97a-4f65-940f-fd3b052c9e12-attr-5-name" class="er entityLabel">date</text><rect height="22" width="21.5625" y="112.09179782867432" x="160.75" class="er attributeBoxOdd"/><text style="dominant-baseline: middle; font-size: 10.2px;" transform="translate(165.75,123.09179782867432)" y="0" x="0" id="text-entity-Metrics-3399bd47-e97a-4f65-940f-fd3b052c9e12-attr-5-key" class="er entityLabel"/></g><g transform="translate(578.2578125,254.18359375 )" id="entity-instancesdetails-81f45ea5-bc0b-423e-b685-64d7255ec8a3"><rect height="377.3769578933716" width="191.09375" y="0" x="0" class="er entityBox"/><text style="dominant-baseline: middle; text-anchor: middle; font-size: 12px;" transform="translate(95.546875,12)" y="0" x="0" id="text-entity-instancesdetails-81f45ea5-bc0b-423e-b685-64d7255ec8a3" class="er entityLabel">instances_details</text><rect height="22" width="36.53125" y="24" x="0" class="er attributeBoxOdd"/><text style="dominant-baseline: middle; font-size: 10.2px;" transform="translate(5,35)" y="0" x="0" id="text-entity-instancesdetails-81f45ea5-bc0b-423e-b685-64d7255ec8a3-attr-1-type" class="er entityLabel">Int</text><rect height="22" width="86.21875" y="24" x="36.53125" class="er attributeBoxOdd"/><text style="dominant-baseline: middle; font-size: 10.2px;" transform="translate(41.53125,35)" y="0" x="0" id="text-entity-instancesdetails-81f45ea5-bc0b-423e-b685-64d7255ec8a3-attr-1-name" class="er entityLabel">id</text><rect height="22" width="21.5625" y="24" x="122.75" class="er attributeBoxOdd"/><text style="dominant-baseline: middle; font-size: 10.2px;" transform="translate(127.75,35)" y="0" x="0" id="text-entity-instancesdetails-81f45ea5-bc0b-423e-b685-64d7255ec8a3-attr-1-key" class="er entityLabel">PK</text><rect height="22" width="46.78125" y="24" x="144.3125" class="er attributeBoxOdd"/><text style="dominant-baseline: middle; font-size: 10.2px;" transform="translate(149.3125,35)" y="0" x="0" id="text-entity-instancesdetails-81f45ea5-bc0b-423e-b685-64d7255ec8a3-attr-1-comment" class="er entityLabel"/><rect height="22.091796875" width="36.53125" y="46" x="0" class="er attributeBoxEven"/><text style="dominant-baseline: middle; font-size: 10.2px;" transform="translate(5,57.0458984375)" y="0" x="0" id="text-entity-instancesdetails-81f45ea5-bc0b-423e-b685-64d7255ec8a3-attr-2-type" class="er entityLabel">String</text><rect height="22.091796875" width="86.21875" y="46" x="36.53125" class="er attributeBoxEven"/><text style="dominant-baseline: middle; font-size: 10.2px;" transform="translate(41.53125,57.0458984375)" y="0" x="0" id="text-entity-instancesdetails-81f45ea5-bc0b-423e-b685-64d7255ec8a3-attr-2-name" class="er entityLabel">instanceId</text><rect height="22.091796875" width="21.5625" y="46" x="122.75" class="er attributeBoxEven"/><text style="dominant-baseline: middle; font-size: 10.2px;" transform="translate(127.75,57.0458984375)" y="0" x="0" id="text-entity-instancesdetails-81f45ea5-bc0b-423e-b685-64d7255ec8a3-attr-2-key" class="er entityLabel"/><rect height="22.091796875" width="46.78125" y="46" x="144.3125" class="er attributeBoxEven"/><text style="dominant-baseline: middle; font-size: 10.2px;" transform="translate(149.3125,57.0458984375)" y="0" x="0" id="text-entity-instancesdetails-81f45ea5-bc0b-423e-b685-64d7255ec8a3-attr-2-comment" class="er entityLabel">nullable</text><rect height="22.091797828674316" width="36.53125" y="68.091796875" x="0" class="er attributeBoxOdd"/><text style="dominant-baseline: middle; font-size: 10.2px;" transform="translate(5,79.13769578933716)" y="0" x="0" id="text-entity-instancesdetails-81f45ea5-bc0b-423e-b685-64d7255ec8a3-attr-3-type" class="er entityLabel">String</text><rect height="22.091797828674316" width="86.21875" y="68.091796875" x="36.53125" class="er attributeBoxOdd"/><text style="dominant-baseline: middle; font-size: 10.2px;" transform="translate(41.53125,79.13769578933716)" y="0" x="0" id="text-entity-instancesdetails-81f45ea5-bc0b-423e-b685-64d7255ec8a3-attr-3-name" class="er entityLabel">region</text><rect height="22.091797828674316" width="21.5625" y="68.091796875" x="122.75" class="er attributeBoxOdd"/><text style="dominant-baseline: middle; font-size: 10.2px;" transform="translate(127.75,79.13769578933716)" y="0" x="0" id="text-entity-instancesdetails-81f45ea5-bc0b-423e-b685-64d7255ec8a3-attr-3-key" class="er entityLabel"/><rect height="22.091797828674316" width="46.78125" y="68.091796875" x="144.3125" class="er attributeBoxOdd"/><text style="dominant-baseline: middle; font-size: 10.2px;" transform="translate(149.3125,79.13769578933716)" y="0" x="0" id="text-entity-instancesdetails-81f45ea5-bc0b-423e-b685-64d7255ec8a3-attr-3-comment" class="er entityLabel">nullable</text><rect height="22.091796875" width="36.53125" y="90.18359470367432" x="0" class="er attributeBoxEven"/><text style="dominant-baseline: middle; font-size: 10.2px;" transform="translate(5,101.22949314117432)" y="0" x="0" id="text-entity-instancesdetails-81f45ea5-bc0b-423e-b685-64d7255ec8a3-attr-4-type" class="er entityLabel">String</text><rect height="22.091796875" width="86.21875" y="90.18359470367432" x="36.53125" class="er attributeBoxEven"/><text style="dominant-baseline: middle; font-size: 10.2px;" transform="translate(41.53125,101.22949314117432)" y="0" x="0" id="text-entity-instancesdetails-81f45ea5-bc0b-423e-b685-64d7255ec8a3-attr-4-name" class="er entityLabel">product</text><rect height="22.091796875" width="21.5625" y="90.18359470367432" x="122.75" class="er attributeBoxEven"/><text style="dominant-baseline: middle; font-size: 10.2px;" transform="translate(127.75,101.22949314117432)" y="0" x="0" id="text-entity-instancesdetails-81f45ea5-bc0b-423e-b685-64d7255ec8a3-attr-4-key" class="er entityLabel"/><rect height="22.091796875" width="46.78125" y="90.18359470367432" x="144.3125" class="er attributeBoxEven"/><text style="dominant-baseline: middle; font-size: 10.2px;" transform="translate(149.3125,101.22949314117432)" y="0" x="0" id="text-entity-instancesdetails-81f45ea5-bc0b-423e-b685-64d7255ec8a3-attr-4-comment" class="er entityLabel">nullable</text><rect height="22.091796875" width="36.53125" y="112.27539157867432" x="0" class="er attributeBoxOdd"/><text style="dominant-baseline: middle; font-size: 10.2px;" transform="translate(5,123.32129001617432)" y="0" x="0" id="text-entity-instancesdetails-81f45ea5-bc0b-423e-b685-64d7255ec8a3-attr-5-type" class="er entityLabel">String</text><rect height="22.091796875" width="86.21875" y="112.27539157867432" x="36.53125" class="er attributeBoxOdd"/><text style="dominant-baseline: middle; font-size: 10.2px;" transform="translate(41.53125,123.32129001617432)" y="0" x="0" id="text-entity-instancesdetails-81f45ea5-bc0b-423e-b685-64d7255ec8a3-attr-5-name" class="er entityLabel">label</text><rect height="22.091796875" width="21.5625" y="112.27539157867432" x="122.75" class="er attributeBoxOdd"/><text style="dominant-baseline: middle; font-size: 10.2px;" transform="translate(127.75,123.32129001617432)" y="0" x="0" id="text-entity-instancesdetails-81f45ea5-bc0b-423e-b685-64d7255ec8a3-attr-5-key" class="er entityLabel"/><rect height="22.091796875" width="46.78125" y="112.27539157867432" x="144.3125" class="er attributeBoxOdd"/><text style="dominant-baseline: middle; font-size: 10.2px;" transform="translate(149.3125,123.32129001617432)" y="0" x="0" id="text-entity-instancesdetails-81f45ea5-bc0b-423e-b685-64d7255ec8a3-attr-5-comment" class="er entityLabel">nullable</text><rect height="22.091796875" width="36.53125" y="134.36718845367432" x="0" class="er attributeBoxEven"/><text style="dominant-baseline: middle; font-size: 10.2px;" transform="translate(5,145.41308689117432)" y="0" x="0" id="text-entity-instancesdetails-81f45ea5-bc0b-423e-b685-64d7255ec8a3-attr-6-type" class="er entityLabel">String</text><rect height="22.091796875" width="86.21875" y="134.36718845367432" x="36.53125" class="er attributeBoxEven"/><text style="dominant-baseline: middle; font-size: 10.2px;" transform="translate(41.53125,145.41308689117432)" y="0" x="0" id="text-entity-instancesdetails-81f45ea5-bc0b-423e-b685-64d7255ec8a3-attr-6-name" class="er entityLabel">state</text><rect height="22.091796875" width="21.5625" y="134.36718845367432" x="122.75" class="er attributeBoxEven"/><text style="dominant-baseline: middle; font-size: 10.2px;" transform="translate(127.75,145.41308689117432)" y="0" x="0" id="text-entity-instancesdetails-81f45ea5-bc0b-423e-b685-64d7255ec8a3-attr-6-key" class="er entityLabel"/><rect height="22.091796875" width="46.78125" y="134.36718845367432" x="144.3125" class="er attributeBoxEven"/><text style="dominant-baseline: middle; font-size: 10.2px;" transform="translate(149.3125,145.41308689117432)" y="0" x="0" id="text-entity-instancesdetails-81f45ea5-bc0b-423e-b685-64d7255ec8a3-attr-6-comment" class="er entityLabel">nullable</text><rect height="22.091797828674316" width="36.53125" y="156.45898532867432" x="0" class="er attributeBoxOdd"/><text style="dominant-baseline: middle; font-size: 10.2px;" transform="translate(5,167.50488424301147)" y="0" x="0" id="text-entity-instancesdetails-81f45ea5-bc0b-423e-b685-64d7255ec8a3-attr-7-type" class="er entityLabel">String</text><rect height="22.091797828674316" width="86.21875" y="156.45898532867432" x="36.53125" class="er attributeBoxOdd"/><text style="dominant-baseline: middle; font-size: 10.2px;" transform="translate(41.53125,167.50488424301147)" y="0" x="0" id="text-entity-instancesdetails-81f45ea5-bc0b-423e-b685-64d7255ec8a3-attr-7-name" class="er entityLabel">instanceType</text><rect height="22.091797828674316" width="21.5625" y="156.45898532867432" x="122.75" class="er attributeBoxOdd"/><text style="dominant-baseline: middle; font-size: 10.2px;" transform="translate(127.75,167.50488424301147)" y="0" x="0" id="text-entity-instancesdetails-81f45ea5-bc0b-423e-b685-64d7255ec8a3-attr-7-key" class="er entityLabel"/><rect height="22.091797828674316" width="46.78125" y="156.45898532867432" x="144.3125" class="er attributeBoxOdd"/><text style="dominant-baseline: middle; font-size: 10.2px;" transform="translate(149.3125,167.50488424301147)" y="0" x="0" id="text-entity-instancesdetails-81f45ea5-bc0b-423e-b685-64d7255ec8a3-attr-7-comment" class="er entityLabel">nullable</text><rect height="22.091796875" width="36.53125" y="178.55078315734863" x="0" class="er attributeBoxEven"/><text style="dominant-baseline: middle; font-size: 10.2px;" transform="translate(5,189.59668159484863)" y="0" x="0" id="text-entity-instancesdetails-81f45ea5-bc0b-423e-b685-64d7255ec8a3-attr-8-type" class="er entityLabel">String</text><rect height="22.091796875" width="86.21875" y="178.55078315734863" x="36.53125" class="er attributeBoxEven"/><text style="dominant-baseline: middle; font-size: 10.2px;" transform="translate(41.53125,189.59668159484863)" y="0" x="0" id="text-entity-instancesdetails-81f45ea5-bc0b-423e-b685-64d7255ec8a3-attr-8-name" class="er entityLabel">keyName</text><rect height="22.091796875" width="21.5625" y="178.55078315734863" x="122.75" class="er attributeBoxEven"/><text style="dominant-baseline: middle; font-size: 10.2px;" transform="translate(127.75,189.59668159484863)" y="0" x="0" id="text-entity-instancesdetails-81f45ea5-bc0b-423e-b685-64d7255ec8a3-attr-8-key" class="er entityLabel"/><rect height="22.091796875" width="46.78125" y="178.55078315734863" x="144.3125" class="er attributeBoxEven"/><text style="dominant-baseline: middle; font-size: 10.2px;" transform="translate(149.3125,189.59668159484863)" y="0" x="0" id="text-entity-instancesdetails-81f45ea5-bc0b-423e-b685-64d7255ec8a3-attr-8-comment" class="er entityLabel">nullable</text><rect height="22.091797828674316" width="36.53125" y="200.64258003234863" x="0" class="er attributeBoxOdd"/><text style="dominant-baseline: middle; font-size: 10.2px;" transform="translate(5,211.6884789466858)" y="0" x="0" id="text-entity-instancesdetails-81f45ea5-bc0b-423e-b685-64d7255ec8a3-attr-9-type" class="er entityLabel">String</text><rect height="22.091797828674316" width="86.21875" y="200.64258003234863" x="36.53125" class="er attributeBoxOdd"/><text style="dominant-baseline: middle; font-size: 10.2px;" transform="translate(41.53125,211.6884789466858)" y="0" x="0" id="text-entity-instancesdetails-81f45ea5-bc0b-423e-b685-64d7255ec8a3-attr-9-name" class="er entityLabel">monitoring</text><rect height="22.091797828674316" width="21.5625" y="200.64258003234863" x="122.75" class="er attributeBoxOdd"/><text style="dominant-baseline: middle; font-size: 10.2px;" transform="translate(127.75,211.6884789466858)" y="0" x="0" id="text-entity-instancesdetails-81f45ea5-bc0b-423e-b685-64d7255ec8a3-attr-9-key" class="er entityLabel"/><rect height="22.091797828674316" width="46.78125" y="200.64258003234863" x="144.3125" class="er attributeBoxOdd"/><text style="dominant-baseline: middle; font-size: 10.2px;" transform="translate(149.3125,211.6884789466858)" y="0" x="0" id="text-entity-instancesdetails-81f45ea5-bc0b-423e-b685-64d7255ec8a3-attr-9-comment" class="er entityLabel">nullable</text><rect height="22.091796875" width="36.53125" y="222.73437786102295" x="0" class="er attributeBoxEven"/><text style="dominant-baseline: middle; font-size: 10.2px;" transform="translate(5,233.78027629852295)" y="0" x="0" id="text-entity-instancesdetails-81f45ea5-bc0b-423e-b685-64d7255ec8a3-attr-10-type" class="er entityLabel">String</text><rect height="22.091796875" width="86.21875" y="222.73437786102295" x="36.53125" class="er attributeBoxEven"/><text style="dominant-baseline: middle; font-size: 10.2px;" transform="translate(41.53125,233.78027629852295)" y="0" x="0" id="text-entity-instancesdetails-81f45ea5-bc0b-423e-b685-64d7255ec8a3-attr-10-name" class="er entityLabel">platform</text><rect height="22.091796875" width="21.5625" y="222.73437786102295" x="122.75" class="er attributeBoxEven"/><text style="dominant-baseline: middle; font-size: 10.2px;" transform="translate(127.75,233.78027629852295)" y="0" x="0" id="text-entity-instancesdetails-81f45ea5-bc0b-423e-b685-64d7255ec8a3-attr-10-key" class="er entityLabel"/><rect height="22.091796875" width="46.78125" y="222.73437786102295" x="144.3125" class="er attributeBoxEven"/><text style="dominant-baseline: middle; font-size: 10.2px;" transform="translate(149.3125,233.78027629852295)" y="0" x="0" id="text-entity-instancesdetails-81f45ea5-bc0b-423e-b685-64d7255ec8a3-attr-10-comment" class="er entityLabel">nullable</text><rect height="22.091797828674316" width="36.53125" y="244.82617473602295" x="0" class="er attributeBoxOdd"/><text style="dominant-baseline: middle; font-size: 10.2px;" transform="translate(5,255.8720736503601)" y="0" x="0" id="text-entity-instancesdetails-81f45ea5-bc0b-423e-b685-64d7255ec8a3-attr-11-type" class="er entityLabel">String</text><rect height="22.091797828674316" width="86.21875" y="244.82617473602295" x="36.53125" class="er attributeBoxOdd"/><text style="dominant-baseline: middle; font-size: 10.2px;" transform="translate(41.53125,255.8720736503601)" y="0" x="0" id="text-entity-instancesdetails-81f45ea5-bc0b-423e-b685-64d7255ec8a3-attr-11-name" class="er entityLabel">privateDnsName</text><rect height="22.091797828674316" width="21.5625" y="244.82617473602295" x="122.75" class="er attributeBoxOdd"/><text style="dominant-baseline: middle; font-size: 10.2px;" transform="translate(127.75,255.8720736503601)" y="0" x="0" id="text-entity-instancesdetails-81f45ea5-bc0b-423e-b685-64d7255ec8a3-attr-11-key" class="er entityLabel"/><rect height="22.091797828674316" width="46.78125" y="244.82617473602295" x="144.3125" class="er attributeBoxOdd"/><text style="dominant-baseline: middle; font-size: 10.2px;" transform="translate(149.3125,255.8720736503601)" y="0" x="0" id="text-entity-instancesdetails-81f45ea5-bc0b-423e-b685-64d7255ec8a3-attr-11-comment" class="er entityLabel">nullable</text><rect height="22.091797828674316" width="36.53125" y="266.91797256469727" x="0" class="er attributeBoxEven"/><text style="dominant-baseline: middle; font-size: 10.2px;" transform="translate(5,277.9638714790344)" y="0" x="0" id="text-entity-instancesdetails-81f45ea5-bc0b-423e-b685-64d7255ec8a3-attr-12-type" class="er entityLabel">String</text><rect height="22.091797828674316" width="86.21875" y="266.91797256469727" x="36.53125" class="er attributeBoxEven"/><text style="dominant-baseline: middle; font-size: 10.2px;" transform="translate(41.53125,277.9638714790344)" y="0" x="0" id="text-entity-instancesdetails-81f45ea5-bc0b-423e-b685-64d7255ec8a3-attr-12-name" class="er entityLabel">privateIpAddress</text><rect height="22.091797828674316" width="21.5625" y="266.91797256469727" x="122.75" class="er attributeBoxEven"/><text style="dominant-baseline: middle; font-size: 10.2px;" transform="translate(127.75,277.9638714790344)" y="0" x="0" id="text-entity-instancesdetails-81f45ea5-bc0b-423e-b685-64d7255ec8a3-attr-12-key" class="er entityLabel"/><rect height="22.091797828674316" width="46.78125" y="266.91797256469727" x="144.3125" class="er attributeBoxEven"/><text style="dominant-baseline: middle; font-size: 10.2px;" transform="translate(149.3125,277.9638714790344)" y="0" x="0" id="text-entity-instancesdetails-81f45ea5-bc0b-423e-b685-64d7255ec8a3-attr-12-comment" class="er entityLabel">nullable</text><rect height="22.091796875" width="36.53125" y="289.0097703933716" x="0" class="er attributeBoxOdd"/><text style="dominant-baseline: middle; font-size: 10.2px;" transform="translate(5,300.0556688308716)" y="0" x="0" id="text-entity-instancesdetails-81f45ea5-bc0b-423e-b685-64d7255ec8a3-attr-13-type" class="er entityLabel">String</text><rect height="22.091796875" width="86.21875" y="289.0097703933716" x="36.53125" class="er attributeBoxOdd"/><text style="dominant-baseline: middle; font-size: 10.2px;" transform="translate(41.53125,300.0556688308716)" y="0" x="0" id="text-entity-instancesdetails-81f45ea5-bc0b-423e-b685-64d7255ec8a3-attr-13-name" class="er entityLabel">publicDnsName</text><rect height="22.091796875" width="21.5625" y="289.0097703933716" x="122.75" class="er attributeBoxOdd"/><text style="dominant-baseline: middle; font-size: 10.2px;" transform="translate(127.75,300.0556688308716)" y="0" x="0" id="text-entity-instancesdetails-81f45ea5-bc0b-423e-b685-64d7255ec8a3-attr-13-key" class="er entityLabel"/><rect height="22.091796875" width="46.78125" y="289.0097703933716" x="144.3125" class="er attributeBoxOdd"/><text style="dominant-baseline: middle; font-size: 10.2px;" transform="translate(149.3125,300.0556688308716)" y="0" x="0" id="text-entity-instancesdetails-81f45ea5-bc0b-423e-b685-64d7255ec8a3-attr-13-comment" class="er entityLabel">nullable</text><rect height="22.091796875" width="36.53125" y="311.1015672683716" x="0" class="er attributeBoxEven"/><text style="dominant-baseline: middle; font-size: 10.2px;" transform="translate(5,322.1474657058716)" y="0" x="0" id="text-entity-instancesdetails-81f45ea5-bc0b-423e-b685-64d7255ec8a3-attr-14-type" class="er entityLabel">String</text><rect height="22.091796875" width="86.21875" y="311.1015672683716" x="36.53125" class="er attributeBoxEven"/><text style="dominant-baseline: middle; font-size: 10.2px;" transform="translate(41.53125,322.1474657058716)" y="0" x="0" id="text-entity-instancesdetails-81f45ea5-bc0b-423e-b685-64d7255ec8a3-attr-14-name" class="er entityLabel">publicIpAddress</text><rect height="22.091796875" width="21.5625" y="311.1015672683716" x="122.75" class="er attributeBoxEven"/><text style="dominant-baseline: middle; font-size: 10.2px;" transform="translate(127.75,322.1474657058716)" y="0" x="0" id="text-entity-instancesdetails-81f45ea5-bc0b-423e-b685-64d7255ec8a3-attr-14-key" class="er entityLabel"/><rect height="22.091796875" width="46.78125" y="311.1015672683716" x="144.3125" class="er attributeBoxEven"/><text style="dominant-baseline: middle; font-size: 10.2px;" transform="translate(149.3125,322.1474657058716)" y="0" x="0" id="text-entity-instancesdetails-81f45ea5-bc0b-423e-b685-64d7255ec8a3-attr-14-comment" class="er entityLabel">nullable</text><rect height="22.091796875" width="36.53125" y="333.1933641433716" x="0" class="er attributeBoxOdd"/><text style="dominant-baseline: middle; font-size: 10.2px;" transform="translate(5,344.2392625808716)" y="0" x="0" id="text-entity-instancesdetails-81f45ea5-bc0b-423e-b685-64d7255ec8a3-attr-15-type" class="er entityLabel">Json</text><rect height="22.091796875" width="86.21875" y="333.1933641433716" x="36.53125" class="er attributeBoxOdd"/><text style="dominant-baseline: middle; font-size: 10.2px;" transform="translate(41.53125,344.2392625808716)" y="0" x="0" id="text-entity-instancesdetails-81f45ea5-bc0b-423e-b685-64d7255ec8a3-attr-15-name" class="er entityLabel">tags</text><rect height="22.091796875" width="21.5625" y="333.1933641433716" x="122.75" class="er attributeBoxOdd"/><text style="dominant-baseline: middle; font-size: 10.2px;" transform="translate(127.75,344.2392625808716)" y="0" x="0" id="text-entity-instancesdetails-81f45ea5-bc0b-423e-b685-64d7255ec8a3-attr-15-key" class="er entityLabel"/><rect height="22.091796875" width="46.78125" y="333.1933641433716" x="144.3125" class="er attributeBoxOdd"/><text style="dominant-baseline: middle; font-size: 10.2px;" transform="translate(149.3125,344.2392625808716)" y="0" x="0" id="text-entity-instancesdetails-81f45ea5-bc0b-423e-b685-64d7255ec8a3-attr-15-comment" class="er entityLabel">nullable</text><rect height="22.091796875" width="36.53125" y="355.2851610183716" x="0" class="er attributeBoxEven"/><text style="dominant-baseline: middle; font-size: 10.2px;" transform="translate(5,366.3310594558716)" y="0" x="0" id="text-entity-instancesdetails-81f45ea5-bc0b-423e-b685-64d7255ec8a3-attr-16-type" class="er entityLabel">String</text><rect height="22.091796875" width="86.21875" y="355.2851610183716" x="36.53125" class="er attributeBoxEven"/><text style="dominant-baseline: middle; font-size: 10.2px;" transform="translate(41.53125,366.3310594558716)" y="0" x="0" id="text-entity-instancesdetails-81f45ea5-bc0b-423e-b685-64d7255ec8a3-attr-16-name" class="er entityLabel">platformDetails</text><rect height="22.091796875" width="21.5625" y="355.2851610183716" x="122.75" class="er attributeBoxEven"/><text style="dominant-baseline: middle; font-size: 10.2px;" transform="translate(127.75,366.3310594558716)" y="0" x="0" id="text-entity-instancesdetails-81f45ea5-bc0b-423e-b685-64d7255ec8a3-attr-16-key" class="er entityLabel"/><rect height="22.091796875" width="46.78125" y="355.2851610183716" x="144.3125" class="er attributeBoxEven"/><text style="dominant-baseline: middle; font-size: 10.2px;" transform="translate(149.3125,366.3310594558716)" y="0" x="0" id="text-entity-instancesdetails-81f45ea5-bc0b-423e-b685-64d7255ec8a3-attr-16-comment" class="er entityLabel">nullable</text></g><g transform="translate(403.1796875,20 )" id="entity-awsdashboarddetails-db833030-82bc-4570-9543-d2519371a300"><rect height="134.18359375" width="183.984375" y="0" x="0" class="er entityBox"/><text style="dominant-baseline: middle; text-anchor: middle; font-size: 12px;" transform="translate(91.9921875,12)" y="0" x="0" id="text-entity-awsdashboarddetails-db833030-82bc-4570-9543-d2519371a300" class="er entityLabel">aws_dashboard_details</text><rect height="22" width="79.609375" y="24" x="0" class="er attributeBoxOdd"/><text style="dominant-baseline: middle; font-size: 10.2px;" transform="translate(5,35)" y="0" x="0" id="text-entity-awsdashboarddetails-db833030-82bc-4570-9543-d2519371a300-attr-1-type" class="er entityLabel">Int</text><rect height="22" width="82.8125" y="24" x="79.609375" class="er attributeBoxOdd"/><text style="dominant-baseline: middle; font-size: 10.2px;" transform="translate(84.609375,35)" y="0" x="0" id="text-entity-awsdashboarddetails-db833030-82bc-4570-9543-d2519371a300-attr-1-name" class="er entityLabel">id</text><rect height="22" width="21.5625" y="24" x="162.421875" class="er attributeBoxOdd"/><text style="dominant-baseline: middle; font-size: 10.2px;" transform="translate(167.421875,35)" y="0" x="0" id="text-entity-awsdashboarddetails-db833030-82bc-4570-9543-d2519371a300-attr-1-key" class="er entityLabel">PK</text><rect height="22.091796875" width="79.609375" y="46" x="0" class="er attributeBoxEven"/><text style="dominant-baseline: middle; font-size: 10.2px;" transform="translate(5,57.0458984375)" y="0" x="0" id="text-entity-awsdashboarddetails-db833030-82bc-4570-9543-d2519371a300-attr-2-type" class="er entityLabel">String</text><rect height="22.091796875" width="82.8125" y="46" x="79.609375" class="er attributeBoxEven"/><text style="dominant-baseline: middle; font-size: 10.2px;" transform="translate(84.609375,57.0458984375)" y="0" x="0" id="text-entity-awsdashboarddetails-db833030-82bc-4570-9543-d2519371a300-attr-2-name" class="er entityLabel">dashboardName</text><rect height="22.091796875" width="21.5625" y="46" x="162.421875" class="er attributeBoxEven"/><text style="dominant-baseline: middle; font-size: 10.2px;" transform="translate(167.421875,57.0458984375)" y="0" x="0" id="text-entity-awsdashboarddetails-db833030-82bc-4570-9543-d2519371a300-attr-2-key" class="er entityLabel"/><rect height="22" width="79.609375" y="68.091796875" x="0" class="er attributeBoxOdd"/><text style="dominant-baseline: middle; font-size: 10.2px;" transform="translate(5,79.091796875)" y="0" x="0" id="text-entity-awsdashboarddetails-db833030-82bc-4570-9543-d2519371a300-attr-3-type" class="er entityLabel">MetricService</text><rect height="22" width="82.8125" y="68.091796875" x="79.609375" class="er attributeBoxOdd"/><text style="dominant-baseline: middle; font-size: 10.2px;" transform="translate(84.609375,79.091796875)" y="0" x="0" id="text-entity-awsdashboarddetails-db833030-82bc-4570-9543-d2519371a300-attr-3-name" class="er entityLabel">service</text><rect height="22" width="21.5625" y="68.091796875" x="162.421875" class="er attributeBoxOdd"/><text style="dominant-baseline: middle; font-size: 10.2px;" transform="translate(167.421875,79.091796875)" y="0" x="0" id="text-entity-awsdashboarddetails-db833030-82bc-4570-9543-d2519371a300-attr-3-key" class="er entityLabel"/><rect height="22" width="79.609375" y="90.091796875" x="0" class="er attributeBoxEven"/><text style="dominant-baseline: middle; font-size: 10.2px;" transform="translate(5,101.091796875)" y="0" x="0" id="text-entity-awsdashboarddetails-db833030-82bc-4570-9543-d2519371a300-attr-4-type" class="er entityLabel">MetricResource</text><rect height="22" width="82.8125" y="90.091796875" x="79.609375" class="er attributeBoxEven"/><text style="dominant-baseline: middle; font-size: 10.2px;" transform="translate(84.609375,101.091796875)" y="0" x="0" id="text-entity-awsdashboarddetails-db833030-82bc-4570-9543-d2519371a300-attr-4-name" class="er entityLabel">resource</text><rect height="22" width="21.5625" y="90.091796875" x="162.421875" class="er attributeBoxEven"/><text style="dominant-baseline: middle; font-size: 10.2px;" transform="translate(167.421875,101.091796875)" y="0" x="0" id="text-entity-awsdashboarddetails-db833030-82bc-4570-9543-d2519371a300-attr-4-key" class="er entityLabel"/><rect height="22.091796875" width="79.609375" y="112.091796875" x="0" class="er attributeBoxOdd"/><text style="dominant-baseline: middle; font-size: 10.2px;" transform="translate(5,123.1376953125)" y="0" x="0" id="text-entity-awsdashboarddetails-db833030-82bc-4570-9543-d2519371a300-attr-5-type" class="er entityLabel">QuiverProducts</text><rect height="22.091796875" width="82.8125" y="112.091796875" x="79.609375" class="er attributeBoxOdd"/><text style="dominant-baseline: middle; font-size: 10.2px;" transform="translate(84.609375,123.1376953125)" y="0" x="0" id="text-entity-awsdashboarddetails-db833030-82bc-4570-9543-d2519371a300-attr-5-name" class="er entityLabel">product</text><rect height="22.091796875" width="21.5625" y="112.091796875" x="162.421875" class="er attributeBoxOdd"/><text style="dominant-baseline: middle; font-size: 10.2px;" transform="translate(167.421875,123.1376953125)" y="0" x="0" id="text-entity-awsdashboarddetails-db833030-82bc-4570-9543-d2519371a300-attr-5-key" class="er entityLabel"/></g><rect height="14" width="80.25" y="266.1236572265625" x="39.17884063720703" class="er relationshipLabelBox"/><text style="text-anchor: middle; dominant-baseline: middle; font-size: 12px;" y="273.1236572265625" x="79.30384063720703" id="rel1" class="er relationshipLabel">enum:resource</text><rect height="14" width="71.890625" y="273.29730224609375" x="286.4273986816406" class="er relationshipLabelBox"/><text style="text-anchor: middle; dominant-baseline: middle; font-size: 12px;" y="280.29730224609375" x="322.3727111816406" id="rel2" class="er relationshipLabel">enum:service</text><rect height="14" width="44.953125" y="155.20318603515625" x="480.25830078125" class="er relationshipLabelBox"/><text style="text-anchor: middle; dominant-baseline: middle; font-size: 12px;" y="162.20318603515625" x="502.73486328125" id="rel3" class="er relationshipLabel">instance</text><rect height="14" width="71.890625" y="276.5490417480469" x="427.95086669921875" class="er relationshipLabelBox"/><text style="text-anchor: middle; dominant-baseline: middle; font-size: 12px;" y="283.5490417480469" x="463.89617919921875" id="rel4" class="er relationshipLabel">enum:service</text><rect height="14" width="80.25" y="215.6043243408203" x="167.64874267578125" class="er relationshipLabelBox"/><text style="text-anchor: middle; dominant-baseline: middle; font-size: 12px;" y="222.6043243408203" x="207.77374267578125" id="rel5" class="er relationshipLabel">enum:resource</text><rect height="14" width="75.765625" y="185.36514282226562" x="794.2494506835938" class="er relationshipLabelBox"/><text style="text-anchor: middle; dominant-baseline: middle; font-size: 12px;" y="192.36514282226562" x="832.1322631835938" id="rel6" class="er relationshipLabel">enum:product</text></svg>